<?xml version="1.0" encoding="iso-8859-1"?>
<!-- Generator: Adobe Illustrator 19.0.0, SVG Export Plug-In . SVG Version: 6.00 Build 0)  -->
<svg version="1.1" id="Capa_1" xmlns="http://www.w3.org/2000/svg" xmlns:xlink="http://www.w3.org/1999/xlink" x="0px" y="0px"
	 viewBox="0 0 512 512" style="enable-background:new 0 0 512 512;" xml:space="preserve">
<path style="fill:#BD6015;" d="M448.032,371H303.968l-14.497,65.238c-2.978,13.395,0.239,27.216,8.825,37.919
	C306.882,484.861,319.677,491,333.398,491h85.203c13.722,0,26.517-6.139,35.103-16.843c8.586-10.704,11.803-24.525,8.825-37.919
	L448.032,371z M321.697,455.386c-2.861-3.568-3.934-8.175-2.941-12.64L328.032,401H361v60h-27.602
	C328.824,461,324.56,458.954,321.697,455.386z M430.303,455.386c-2.862,3.568-7.127,5.614-11.701,5.614H391v-60h32.968l9.276,41.747
	C434.236,447.211,433.164,451.818,430.303,455.386z"/>
<path style="fill:#D4702C;" d="M208.033,371H63.967L49.47,436.238c-2.977,13.395,0.24,27.216,8.826,37.919
	C66.882,484.861,79.677,491,93.398,491h85.203c13.722,0,26.516-6.139,35.102-16.843c8.586-10.703,11.803-24.524,8.826-37.919
	L208.033,371z M81.698,455.386c-2.862-3.568-3.935-8.175-2.942-12.64L88.033,401H121v60H93.398
	C88.824,461,84.56,458.954,81.698,455.386z M190.302,455.386c-2.862,3.568-7.126,5.614-11.701,5.614H151v-60h32.967l9.277,41.746
	C194.237,447.211,193.165,451.818,190.302,455.386z"/>
<path style="fill:#BD6015;" d="M303.968,141h144.064l14.497-65.238c2.978-13.395-0.239-27.216-8.825-37.919
	C445.118,27.139,432.323,21,418.602,21h-85.203c-13.722,0-26.517,6.139-35.103,16.843s-11.803,24.525-8.825,37.919L303.968,141z
	 M430.303,56.614c2.861,3.568,3.934,8.175,2.941,12.64L423.968,111H391V51h27.602C423.176,51,427.44,53.046,430.303,56.614z
	 M321.697,56.614C324.56,53.046,328.824,51,333.398,51H361v60h-32.968l-9.276-41.747C317.764,64.789,318.836,60.182,321.697,56.614z
	"/>
<path style="fill:#D4702C;" d="M178.602,21H93.398c-13.722,0-26.516,6.139-35.102,16.843C49.71,48.546,46.493,62.367,49.47,75.762
	L63.967,141h144.065l14.497-65.238c2.977-13.395-0.24-27.216-8.826-37.919C205.118,27.139,192.323,21,178.602,21z M78.755,69.254
	c-0.992-4.465,0.08-9.072,2.942-12.639C84.56,53.046,88.824,51,93.398,51H121v60H88.033L78.755,69.254z M193.245,69.254L183.967,111
	H151V51h27.602c4.574,0,8.839,2.046,11.701,5.614C193.165,60.182,194.237,64.789,193.245,69.254z"/>
<path style="fill:#DE8144;" d="M512,401H0V111h512V401z"/>
<path style="fill:#D4702C;" d="M512,401H256V111h256V401z"/>
<g>
</g>
<g>
</g>
<g>
</g>
<g>
</g>
<g>
</g>
<g>
</g>
<g>
</g>
<g>
</g>
<g>
</g>
<g>
</g>
<g>
</g>
<g>
</g>
<g>
</g>
<g>
</g>
<g>
</g>
</svg>
