<svg height="512" viewBox="0 0 512 512" width="512" xmlns="http://www.w3.org/2000/svg"><g id="Fill_out_line" data-name="Fill out line"><path d="m264 200h136a16 16 0 0 1 16 16 16 16 0 0 1 -16 16h-136z" fill="#a1764a"/><rect fill="#bc8d5d" height="32" rx="16" width="176" x="104" y="200"/><g fill="#8c6231"><path d="m264 232h32v192h-32z"/><path d="m120 232h32v192h-32z"/><path d="m368 232h32v192h-32z"/></g><path d="m128 168 24 32h48l24-32z" fill="#e6e6e6"/><path d="m296 168 24 32h48l24-32z" fill="#e6e6e6"/><path d="m152 88h48a0 0 0 0 1 0 0v24a24 24 0 0 1 -24 24 24 24 0 0 1 -24-24v-24a0 0 0 0 1 0 0z" fill="#57c1ff"/><path d="m320 88h48a0 0 0 0 1 0 0v24a24 24 0 0 1 -24 24 24 24 0 0 1 -24-24v-24a0 0 0 0 1 0 0z" fill="#57c1ff"/><path d="m469.17863 144a15.70787 15.70787 0 0 0 -15.46885 12.97807l-21.70978 123.02193h-80a24 24 0 0 0 -24 24v16h128l28.63313-157.48222a15.70786 15.70786 0 0 0 -15.4545-18.51778z" fill="#fff1d8"/><path d="m456 320 8 104h-16l-24-104z" fill="#bc8d5d"/><path d="m328 320-8 104h16l24-104z" fill="#bc8d5d"/><path d="m42.82137 144a15.70787 15.70787 0 0 1 15.46885 12.97807l21.70978 123.02193h80a24 24 0 0 1 24 24v16h-128l-28.63313-157.48222a15.70786 15.70786 0 0 1 15.4545-18.51778z" fill="#fff1d8"/><path d="m56 320-8 104h16l24-104z" fill="#bc8d5d"/><path d="m184 320 8 104h-16l-24-104z" fill="#bc8d5d"/><path d="m487.38086 144.51807a23.70721 23.70721 0 0 0 -41.54886 11.06982l-20.54391 116.41211h-17.28809v-33.37622a23.99787 23.99787 0 0 0 -8-46.62378h-15.99976l14.40015-19.2002a8.00031 8.00031 0 0 0 -6.40039-12.7998h-40v-17.0127a32.0573 32.0573 0 0 0 24-30.9873v-24a8.00008 8.00008 0 0 0 -8-8h-48a8.00008 8.00008 0 0 0 -8 8v24a32.0573 32.0573 0 0 0 24 30.9873v17.0127h-40a8.00031 8.00031 0 0 0 -6.40039 12.7998l14.40015 19.2002h-87.99952l14.40015-19.2002a8.00031 8.00031 0 0 0 -6.40039-12.7998h-40v-17.0127a32.0573 32.0573 0 0 0 24-30.9873v-24a8.00008 8.00008 0 0 0 -8-8h-48a8.00008 8.00008 0 0 0 -8 8v24a32.0573 32.0573 0 0 0 24 30.9873v17.0127h-40a8.00031 8.00031 0 0 0 -6.40039 12.7998l14.40015 19.2002h-15.99976a23.99787 23.99787 0 0 0 -8 46.62378v33.37622h-25.28809l-20.54391-116.41211a23.7075 23.7075 0 1 0 -46.67188 8.36084l28.44825 156.4668-7.9209 102.9707a7.99975 7.99975 0 0 0 7.97653 8.61377h16a7.99968 7.99968 0 0 0 7.79492-6.20117l22.56885-97.79883h17.63623v96a8.00008 8.00008 0 0 0 8 8h32a8.00008 8.00008 0 0 0 8-8v-33.75659l8.20508 35.55542a7.99968 7.99968 0 0 0 7.79492 6.20117h16a7.99975 7.99975 0 0 0 7.97656-8.61377l-7.97656-103.69531v-15.69092a32.03635 32.03635 0 0 0 -32-32v-32h88v184a8.00008 8.00008 0 0 0 8 8h32a8.00008 8.00008 0 0 0 8-8v-184h64v32h-8a32.03635 32.03635 0 0 0 -32 32v15.69092l-7.97656 103.69531a7.99975 7.99975 0 0 0 7.97656 8.61377h16a7.99968 7.99968 0 0 0 7.79492-6.20117l16.20508-70.22193v68.4231a8.00008 8.00008 0 0 0 8 8h32a8.00008 8.00008 0 0 0 8-8v-96h9.63623l22.56885 97.79883a7.99968 7.99968 0 0 0 7.79492 6.20117h16a7.99975 7.99975 0 0 0 7.97656-8.61377l-7.9209-102.9707 28.44825-156.46631a23.64222 23.64222 0 0 0 -5.12305-19.43115zm-159.38086-32.51807v-16h32v16a16 16 0 0 1 -32 0zm-168 0v-16h32v16a16 16 0 0 1 -32 0zm248 104a8.00917 8.00917 0 0 1 -8 8h-113.37622a23.94021 23.94021 0 0 0 0-16h113.37622a8.00917 8.00917 0 0 1 8 8zm-96-40h64l-12.00024 16h-39.99952zm-104 0-12.00024 16h-11.99976v-16zm-64 0h24v16h-11.99976zm-24 32h144a8 8 0 0 1 0 16h-144a8 8 0 0 1 0-16zm-62.36426 208h-.99707l6.76953-88h14.53565zm70.36426 0v-88h16v88zm54.36426 0-20.30811-88h14.53565l6.76953 88zm-6.36426-112v8h-113.32324l-27.43848-150.91406a7.70715 7.70715 0 0 1 7.58301-9.08594 7.69733 7.69733 0 0 1 7.59082 6.36816l21.71 123.022a7.99886 7.99886 0 0 0 7.87789 6.60984h80a16.01833 16.01833 0 0 1 16 16zm-32-32h-16v-32h16zm136 144h-16v-176h16zm96-176h16v32h-16zm-46.36426 176h-.99707l6.76953-88h14.53565zm62.36426 0h-16v-88h16zm62.36426 0-20.30811-88h14.53565l6.76953 88zm22.39746-254.91357-27.43848 150.91357h-113.32324v-8a16.01833 16.01833 0 0 1 16-16h80a7.99886 7.99886 0 0 0 7.87793-6.60986l21.71-123.022a7.69733 7.69733 0 0 1 7.59078-6.36814 7.70727 7.70727 0 0 1 7.583 9.08643z"/></g></svg>